<svg width="176" height="152" viewBox="0 0 176 152" fill="none" xmlns="http://www.w3.org/2000/svg">
<path d="M46.303 111.088C42.061 106.919 39.3314 101.206 39.0281 94.8321C38.4143 81.9377 47.9418 70.7927 60.7748 69.3935C61.8855 57.0027 71.382 47.0079 83.7 45.2656C96.0179 43.5233 107.914 50.4923 112.417 62.089C117.613 61.4485 122.755 63.6371 125.894 67.826C129.034 72.0149 129.693 77.5637 127.621 82.3712C134.685 87.2085 137.785 96.076 135.273 104.261C134.488 106.819 133.211 109.125 131.566 111.088" stroke="#22211D" stroke-width="8" stroke-linecap="round" stroke-linejoin="round"/>
<path fill-rule="evenodd" clip-rule="evenodd" d="M127.621 82.3712C129.693 77.5637 129.034 72.0149 125.894 67.826C122.755 63.6371 117.613 61.4485 112.417 62.089C107.914 50.4923 96.0179 43.5233 83.7 45.2656C71.382 47.0079 61.8855 57.0027 60.7748 69.3935C47.9418 70.7927 38.4143 81.9377 39.0281 94.8321C39.6418 107.727 50.1849 117.916 63.0927 118.09H116.659C125.221 118.048 132.761 112.446 135.273 104.261C137.785 96.076 134.685 87.2085 127.621 82.3712Z" stroke="#22211D" stroke-width="8" stroke-linecap="round" stroke-linejoin="round"/>
</svg>
